<svg width="18" height="12" viewBox="0 0 18 12" fill="none" xmlns="http://www.w3.org/2000/svg">
<path d="M16.5 1.83366H5.66669C5.20669 1.83366 4.83335 1.46033 4.83335 1.00033C4.83335 0.540326 5.20669 0.166992 5.66669 0.166992H16.5C16.96 0.166992 17.3334 0.540326 17.3334 1.00033C17.3334 1.46033 16.96 1.83366 16.5 1.83366ZM17.3334 6.00033C17.3334 5.54033 16.96 5.16699 16.5 5.16699H1.50002C1.04002 5.16699 0.666687 5.54033 0.666687 6.00033C0.666687 6.46033 1.04002 6.83366 1.50002 6.83366H16.5C16.96 6.83366 17.3334 6.46033 17.3334 6.00033ZM17.3334 11.0003C17.3334 10.5403 16.96 10.167 16.5 10.167H9.00002C8.54002 10.167 8.16669 10.5403 8.16669 11.0003C8.16669 11.4603 8.54002 11.8337 9.00002 11.8337H16.5C16.96 11.8337 17.3334 11.4603 17.3334 11.0003Z" fill="#25314C"/>
</svg>
