<svg xmlns="http://www.w3.org/2000/svg" width="16" height="16" viewBox="0 0 16 16" fill="none">
  <path d="M8.00065 1.33398C4.32065 1.33398 1.33398 4.32065 1.33398 8.00065C1.33398 11.6807 4.32065 14.6673 8.00065 14.6673C11.6807 14.6673 14.6673 11.6807 14.6673 8.00065C14.6673 4.32065 11.6807 1.33398 8.00065 1.33398ZM10.334 8.50065H8.50065V10.334C8.50065 10.6073 8.27398 10.834 8.00065 10.834C7.72732 10.834 7.50065 10.6073 7.50065 10.334V8.50065H5.66732C5.39398 8.50065 5.16732 8.27398 5.16732 8.00065C5.16732 7.72732 5.39398 7.50065 5.66732 7.50065H7.50065V5.66732C7.50065 5.39398 7.72732 5.16732 8.00065 5.16732C8.27398 5.16732 8.50065 5.39398 8.50065 5.66732V7.50065H10.334C10.6073 7.50065 10.834 7.72732 10.834 8.00065C10.834 8.27398 10.6073 8.50065 10.334 8.50065Z" fill="#17CF62"/>
</svg>