<svg xmlns="http://www.w3.org/2000/svg" width="34" height="35" viewBox="0 0 34 35" fill="none">
  <path fill-rule="evenodd" clip-rule="evenodd" d="M17 34.5C26.3888 34.5 34 26.8888 34 17.5C34 8.11116 26.3888 0.5 17 0.5C7.61116 0.5 0 8.11116 0 17.5C0 26.8888 7.61116 34.5 17 34.5ZM17 9C15.8264 9 14.875 9.9514 14.875 11.125V23.875C14.875 25.0486 15.8264 26 17 26C18.1736 26 19.125 25.0486 19.125 23.875V11.125C19.125 9.9514 18.1736 9 17 9ZM10.625 13.25C9.4514 13.25 8.5 14.2014 8.5 15.375V23.875C8.5 25.0486 9.4514 26 10.625 26C11.7986 26 12.75 25.0486 12.75 23.875V15.375C12.75 14.2014 11.7986 13.25 10.625 13.25ZM21.25 19.625C21.25 18.4514 22.2014 17.5 23.375 17.5C24.5486 17.5 25.5 18.4514 25.5 19.625V23.875C25.5 25.0486 24.5486 26 23.375 26C22.2014 26 21.25 25.0486 21.25 23.875V19.625Z" fill="#FB7053"/>
</svg>