<svg width="400" height="912" viewBox="0 0 400 912" fill="none" xmlns="http://www.w3.org/2000/svg">
<g clip-path="url(#clip0_568_15211)">
<path d="M0 0H400" stroke="#E0DEE3" stroke-width="0.833333"/>
<path d="M0 24H400" stroke="#E0DEE3" stroke-width="0.833333"/>
<path d="M0 48H400" stroke="#E0DEE3" stroke-width="0.833333"/>
<path d="M0 72H400" stroke="#E0DEE3" stroke-width="0.833333"/>
<path d="M0 96H400" stroke="#E0DEE3" stroke-width="0.833333"/>
<path d="M0 120H400" stroke="#E0DEE3" stroke-width="0.833333"/>
<path d="M0 144H400" stroke="#E0DEE3" stroke-width="0.833333"/>
<path d="M0 168H400" stroke="#E0DEE3" stroke-width="0.833333"/>
<path d="M0 192H400" stroke="#E0DEE3" stroke-width="0.833333"/>
<path d="M0 216H400" stroke="#E0DEE3" stroke-width="0.833333"/>
<path d="M0 240H400" stroke="#E0DEE3" stroke-width="0.833333"/>
<path d="M0 264H400" stroke="#E0DEE3" stroke-width="0.833333"/>
<path d="M0 288H400" stroke="#E0DEE3" stroke-width="0.833333"/>
<path d="M0 312H400" stroke="#E0DEE3" stroke-width="0.833333"/>
<path d="M0 336H400" stroke="#E0DEE3" stroke-width="0.833333"/>
<path d="M0 360H400" stroke="#E0DEE3" stroke-width="0.833333"/>
<path d="M0 384H400" stroke="#E0DEE3" stroke-width="0.833333"/>
<path d="M0 408H400" stroke="#E0DEE3" stroke-width="0.833333"/>
<path d="M0 432H400" stroke="#E0DEE3" stroke-width="0.833333"/>
<path d="M0 456H400" stroke="#E0DEE3" stroke-width="0.833333"/>
<path d="M0 480H400" stroke="#E0DEE3" stroke-width="0.833333"/>
<path d="M0 504H400" stroke="#E0DEE3" stroke-width="0.833333"/>
<path d="M0 528H400" stroke="#E0DEE3" stroke-width="0.833333"/>
<path d="M0 552H400" stroke="#E0DEE3" stroke-width="0.833333"/>
<path d="M0 576H400" stroke="#E0DEE3" stroke-width="0.833333"/>
<path d="M0 600H400" stroke="#E0DEE3" stroke-width="0.833333"/>
<path d="M0 624H400" stroke="#E0DEE3" stroke-width="0.833333"/>
<path d="M0 648H400" stroke="#E0DEE3" stroke-width="0.833333"/>
<path d="M0 672H400" stroke="#E0DEE3" stroke-width="0.833333"/>
<path d="M0 696H400" stroke="#E0DEE3" stroke-width="0.833333"/>
<path d="M0 720H400" stroke="#E0DEE3" stroke-width="0.833333"/>
<path d="M0 744H400" stroke="#E0DEE3" stroke-width="0.833333"/>
<path d="M0 768H400" stroke="#E0DEE3" stroke-width="0.833333"/>
<path d="M0 792H400" stroke="#E0DEE3" stroke-width="0.833333"/>
<path d="M0 816H400" stroke="#E0DEE3" stroke-width="0.833333"/>
<path d="M0 840H400" stroke="#E0DEE3" stroke-width="0.833333"/>
<path d="M0 864H400" stroke="#E0DEE3" stroke-width="0.833333"/>
<path d="M0 888H400" stroke="#E0DEE3" stroke-width="0.833333"/>
<path d="M0 912H400" stroke="#E0DEE3" stroke-width="0.833333"/>
</g>
<g clip-path="url(#clip1_568_15211)">
<path d="M8 907L8 5.33329" stroke="#E0DEE3" stroke-width="0.833333"/>
<path d="M32 907L32 5.33329" stroke="#E0DEE3" stroke-width="0.833333"/>
<path d="M56 907L56 5.33329" stroke="#E0DEE3" stroke-width="0.833333"/>
<path d="M80 907L80 5.33329" stroke="#E0DEE3" stroke-width="0.833333"/>
<path d="M104 907L104 5.33329" stroke="#E0DEE3" stroke-width="0.833333"/>
<path d="M128 907L128 5.33329" stroke="#E0DEE3" stroke-width="0.833333"/>
<path d="M152 907L152 5.33329" stroke="#E0DEE3" stroke-width="0.833333"/>
<path d="M176 907L176 5.33329" stroke="#E0DEE3" stroke-width="0.833333"/>
<path d="M200 907L200 5.33329" stroke="#E0DEE3" stroke-width="0.833333"/>
<path d="M224 907L224 5.33329" stroke="#E0DEE3" stroke-width="0.833333"/>
<path d="M248 907L248 5.33329" stroke="#E0DEE3" stroke-width="0.833333"/>
<path d="M272 907L272 5.33329" stroke="#E0DEE3" stroke-width="0.833333"/>
<path d="M296 907L296 5.33329" stroke="#E0DEE3" stroke-width="0.833333"/>
<path d="M320 907L320 5.33329" stroke="#E0DEE3" stroke-width="0.833333"/>
<path d="M344 907L344 5.33329" stroke="#E0DEE3" stroke-width="0.833333"/>
<path d="M368 907L368 5.33329" stroke="#E0DEE3" stroke-width="0.833333"/>
<path d="M392 907L392 5.33329" stroke="#E0DEE3" stroke-width="0.833333"/>
</g>
<defs>
<clipPath id="clip0_568_15211">
<rect width="400" height="912" fill="white"/>
</clipPath>
<clipPath id="clip1_568_15211">
<rect width="901.667" height="400" fill="white" transform="matrix(0 -1 1 0 0 907)"/>
</clipPath>
</defs>
</svg>
