<svg width="360" height="290" viewBox="0 0 360 290" fill="none" xmlns="http://www.w3.org/2000/svg">
<g clip-path="url(#clip0_3915_25306)">
<rect width="549" height="335" transform="translate(-86 -45)" fill="#EAE9EC"/>
<g opacity="0.2">
<path d="M176.117 -47.6992V291.89" stroke="#5E6C84" stroke-width="0.539887"/>
<path d="M203.109 -47.6992V291.89" stroke="#5E6C84" stroke-width="0.539887"/>
<path d="M257.097 -45.8096V114.537C257.097 157.998 252.103 234.662 276.938 289.865" stroke="#5E6C84" stroke-width="0.539887"/>
<path d="M121.989 -46.6191V113.727C121.989 157.188 126.983 233.852 102.148 289.056" stroke="#5E6C84" stroke-width="0.539887"/>
<path d="M230.101 -45.8096V114.537C230.101 157.998 226.997 234.662 241.844 289.865" stroke="#5E6C84" stroke-width="0.539887"/>
<path d="M148.985 -46.6191V113.727C148.985 157.188 152.089 233.852 137.242 289.056" stroke="#5E6C84" stroke-width="0.539887"/>
<path d="M283.957 -45.8096V114.537C283.957 157.998 283.282 234.662 308.117 289.865" stroke="#5E6C84" stroke-width="0.539887"/>
<path d="M95.1287 -46.6191V113.727C95.1287 157.188 95.8036 233.852 70.9688 289.056" stroke="#5E6C84" stroke-width="0.539887"/>
<path d="M311.09 -45.8096V114.537C311.09 157.998 312.844 234.662 340.648 289.865" stroke="#5E6C84" stroke-width="0.539887"/>
<path d="M68.0041 -46.6191V113.727C68.0041 157.188 66.2495 233.852 38.4453 289.056" stroke="#5E6C84" stroke-width="0.539887"/>
<path d="M338.214 -45.8096V114.537C338.214 157.998 336.19 234.662 373.172 289.865" stroke="#5E6C84" stroke-width="0.539887"/>
<path d="M40.8718 -46.6191V113.727C40.8718 157.188 42.8963 233.852 5.91406 289.056" stroke="#5E6C84" stroke-width="0.539887"/>
<path d="M14.0128 -46.6191V113.727C14.0128 157.188 12.5281 233.852 -26.3438 289.056" stroke="#5E6C84" stroke-width="0.539887"/>
</g>
<g opacity="0.2">
<path d="M-109.758 0.890625L488.977 0.890573" stroke="#5E6C84" stroke-width="0.539887"/>
<path d="M-109.758 27.8857L488.977 27.8857" stroke="#5E6C84" stroke-width="0.539887"/>
<path d="M-109.758 54.8796L488.977 54.8796" stroke="#5E6C84" stroke-width="0.539887"/>
<path d="M-109.758 81.874L488.977 81.874" stroke="#5E6C84" stroke-width="0.539887"/>
<path d="M-109.758 108.868L488.977 108.868" stroke="#5E6C84" stroke-width="0.539887"/>
<path d="M-109.758 135.862L488.977 135.862" stroke="#5E6C84" stroke-width="0.539887"/>
<path d="M-109.758 160.158L488.977 160.158" stroke="#5E6C84" stroke-width="0.539887"/>
<path opacity="0.9" d="M-109.758 181.753L488.977 181.753" stroke="#5E6C84" stroke-width="0.539887"/>
<path opacity="0.8" d="M-109.758 200.649L488.977 200.649" stroke="#5E6C84" stroke-width="0.539887"/>
<path opacity="0.7" d="M-109.758 216.846L488.977 216.846" stroke="#5E6C84" stroke-width="0.539887"/>
<path opacity="0.6" d="M-109.758 230.343L488.977 230.343" stroke="#5E6C84" stroke-width="0.539887"/>
<path opacity="0.5" d="M-109.758 243.84L488.977 243.84" stroke="#5E6C84" stroke-width="0.539887"/>
<path opacity="0.4" d="M-109.758 256.258L488.977 256.258" stroke="#5E6C84" stroke-width="0.539887"/>
<path opacity="0.3" d="M-109.758 268.675L488.977 268.675" stroke="#5E6C84" stroke-width="0.539887"/>
<path opacity="0.3" d="M-109.758 281.093L488.977 281.093" stroke="#5E6C84" stroke-width="0.539887"/>
</g>
<path d="M67.8691 126.954C68.5294 129.345 68.8595 130.541 69.4824 131.528C70.128 132.551 71.0001 133.412 72.0314 134.045C73.0262 134.655 74.2259 134.97 76.6252 135.6L76.7772 135.64L76.6252 135.679C74.2259 136.309 73.0262 136.624 72.0314 137.234C71.0001 137.867 70.128 138.728 69.4824 139.751C68.8595 140.738 68.5294 141.934 67.8691 144.325C67.2088 141.934 66.8786 140.738 66.2558 139.751C65.6101 138.728 64.738 137.867 63.7068 137.234C62.7119 136.624 61.5123 136.309 59.1129 135.679L58.9609 135.64L59.1129 135.6C61.5123 134.97 62.7119 134.655 63.7068 134.045C64.738 133.412 65.6101 132.551 66.2558 131.528C66.8786 130.541 67.2088 129.345 67.8691 126.954Z" fill="#5E6C84"/>
<path d="M203.107 63.6123C202.447 61.2212 202.117 60.0256 201.494 59.0386C200.849 58.0155 199.976 57.1544 198.945 56.5218C197.95 55.9116 196.751 55.5966 194.351 54.9668L194.199 54.9269L194.351 54.887C196.751 54.2571 197.95 53.9422 198.945 53.3319C199.976 52.6994 200.849 51.8383 201.494 50.8151C202.117 49.8281 202.447 48.6326 203.107 46.2414C203.768 48.6326 204.098 49.8281 204.721 50.8151C205.366 51.8383 206.239 52.6994 207.27 53.3319C208.265 53.9422 209.464 54.2571 211.864 54.887L212.016 54.9269L211.864 54.9668C209.464 55.5966 208.265 55.9116 207.27 56.5218C206.239 57.1544 205.366 58.0155 204.721 59.0386C204.098 60.0256 203.768 61.2212 203.107 63.6123Z" fill="#5E6C84"/>
</g>
<defs>
<clipPath id="clip0_3915_25306">
<rect width="549" height="335" fill="white" transform="translate(-86 -45)"/>
</clipPath>
</defs>
</svg>
